<svg data-v-423bf9ae="" xmlns="http://www.w3.org/2000/svg" viewBox="0 0 337 91" class="iconLeft"><!----><!----><!----><g data-v-423bf9ae="" id="97633383-b778-4c23-84b2-38b2760e5f63" fill="black" transform="matrix(6.1224488604322,0,0,6.1224488604322,107.95866317026123,10.714287480008146)"><path d="M3.91 4.61L3.91 5.59L3.91 9.39L3.91 9.39Q3.91 9.81 3.64 10.12L3.64 10.12L3.64 10.12Q3.37 10.43 2.97 10.50L2.97 10.50L0.94 10.50L0.94 10.50Q0.53 10.43 0.27 10.12L0.27 10.12L0.27 10.12Q0 9.81 0 9.39L0 9.39L0 1.81L0 1.81Q0 1.39 0.27 1.08L0.27 1.08L0.27 1.08Q0.53 0.77 0.94 0.70L0.94 0.70L2.97 0.70L2.97 0.70Q3.37 0.77 3.64 1.08L3.64 1.08L3.64 1.08Q3.91 1.39 3.91 1.81L3.91 1.81L3.91 2.83L2.93 2.83L2.93 1.81L2.93 1.81Q2.93 1.67 2.79 1.67L2.79 1.67L1.12 1.67L1.12 1.67Q0.98 1.67 0.98 1.81L0.98 1.81L0.98 9.39L0.98 9.39Q0.98 9.53 1.12 9.53L1.12 9.53L2.79 9.53L2.79 9.53Q2.93 9.53 2.93 9.39L2.93 9.39L2.93 5.59L1.76 5.59L1.76 4.61L3.91 4.61ZM4.82 10.50L4.82 4.62L5.80 4.62L5.80 10.50L4.82 10.50ZM4.82 0.70L7.64 0.70L7.64 0.70Q8.09 0.70 8.42 1.03L8.42 1.03L8.42 1.03Q8.75 1.36 8.75 1.82L8.75 1.82L8.75 4.48L8.75 4.48Q8.75 4.94 8.42 5.27L8.42 5.27L8.42 5.27Q8.09 5.60 7.64 5.60L7.64 5.60L7.29 5.60L8.75 10.50L7.70 10.50L6.01 4.62L7.64 4.62L7.64 4.62Q7.77 4.62 7.77 4.48L7.77 4.48L7.77 1.82L7.77 1.82Q7.77 1.68 7.64 1.68L7.64 1.68L5.80 1.68L5.80 4.62L4.82 1.68L4.82 0.70ZM13.19 1.68L10.64 1.68L10.64 4.62L12.68 4.62L12.68 5.60L10.64 5.60L10.64 9.52L13.19 9.52L13.19 10.50L9.66 10.50L9.66 4.62L10.64 4.62L9.66 1.68L9.66 0.70L13.19 0.70L13.19 1.68ZM17.02 8.34L18.00 8.34L18.00 9.39L18.00 9.39Q18.00 9.81 17.74 10.12L17.74 10.12L17.74 10.12Q17.49 10.43 17.08 10.50L17.08 10.50L15.04 10.50L15.04 10.50Q14.63 10.43 14.36 10.12L14.36 10.12L14.36 10.12Q14.10 9.81 14.10 9.39L14.10 9.39L14.10 1.81L14.10 1.81Q14.10 1.39 14.36 1.08L14.36 1.08L14.36 1.08Q14.63 0.77 15.04 0.70L15.04 0.70L17.08 0.70L17.08 0.70Q17.49 0.77 17.74 1.08L17.74 1.08L17.74 1.08Q18.00 1.39 18.00 1.81L18.00 1.81L18.00 2.86L17.02 2.86L17.02 1.81L17.02 1.81Q17.02 1.67 16.90 1.67L16.90 1.67L15.22 1.67L15.22 1.67Q15.08 1.67 15.08 1.81L15.08 1.81L15.08 9.39L15.08 9.39Q15.08 9.53 15.22 9.53L15.22 9.53L16.90 9.53L16.90 9.53Q17.02 9.53 17.02 9.39L17.02 9.39L17.02 8.34ZM22.26 10.50L21.01 2.67L20.30 7.20L21.01 7.20L21.01 8.18L20.15 8.18L19.77 10.50L18.77 10.50L19.15 8.18L18.77 8.18L18.77 7.20L19.31 7.20L20.34 0.70L21.69 0.70L23.25 10.50L22.26 10.50ZM26.74 0.70L27.72 0.70L27.72 10.50L26.74 10.50L26.74 10.50L26.71 10.50L24.78 4.03L24.78 10.50L23.80 10.50L23.80 0.70L24.78 0.70L24.78 0.71L26.74 7.18L26.74 0.70ZM28.63 0.70L31.42 0.70L31.42 0.70Q31.88 0.70 32.21 1.04L32.21 1.04L32.21 1.04Q32.54 1.37 32.54 1.83L32.54 1.83L32.54 9.39L32.54 9.39Q32.54 9.84 32.21 10.17L32.21 10.17L32.21 10.17Q31.88 10.50 31.42 10.50L31.42 10.50L28.63 10.50L28.63 4.62L29.61 4.62L28.63 1.68L28.63 0.70ZM31.56 9.39L31.56 1.83L31.56 1.83Q31.56 1.69 31.42 1.69L31.42 1.69L29.61 1.69L29.61 9.52L31.42 9.52L31.42 9.52Q31.56 9.52 31.56 9.39L31.56 9.39ZM34.38 0.70L36.44 0.70L36.44 0.70Q36.85 0.77 37.11 1.08L37.11 1.08L37.11 1.08Q37.38 1.39 37.38 1.81L37.38 1.81L37.38 9.39L37.38 9.39Q37.38 9.81 37.11 10.12L37.11 10.12L37.11 10.12Q36.85 10.43 36.44 10.50L36.44 10.50L34.38 10.50L34.38 10.50Q33.98 10.43 33.71 10.12L33.71 10.12L33.71 10.12Q33.45 9.81 33.45 9.39L33.45 9.39L33.45 1.81L33.45 1.81Q33.45 1.39 33.71 1.08L33.71 1.08L33.71 1.08Q33.98 0.77 34.38 0.70L34.38 0.70ZM36.40 9.39L36.40 1.81L36.40 1.81Q36.40 1.67 36.27 1.67L36.27 1.67L34.57 1.67L34.57 1.67Q34.43 1.67 34.43 1.81L34.43 1.81L34.43 9.39L34.43 9.39Q34.43 9.53 34.57 9.53L34.57 9.53L36.27 9.53L36.27 9.53Q36.40 9.53 36.40 9.39L36.40 9.39Z"></path></g><!----><g data-v-423bf9ae="" id="b8cb79a7-19d6-48e8-94dd-72c4e0eb2f47" transform="matrix(1.0846826260057802,0,0,1.0846826260057802,-8.689436888358635,-12.00238807346605)" stroke="none" fill="black"><path d="M44.837 94.601c-17.61-1.847-31.995-15.164-35.78-33.12-.643-3.048-.883-10.177-.459-13.591 1.956-15.727 13.074-29.422 27.825-34.275 4.599-1.512 6.452-1.778 12.426-1.778 4.763 0 5.733.067 7.907.54 14.518 3.167 25.94 13.525 30.659 27.803 3.748 11.344 2.351 23.77-3.898 34.667-1.362 2.374-1.83 3.013-4.36 5.965-8.494 9.91-21.497 15.135-34.32 13.79zm11.683-4.567c4.77-1.136 8.527-2.745 12.264-5.254 8.443-5.668 14.072-14.205 16.104-24.421.716-3.604.767-10.277.106-13.848-2.761-14.9-13.761-26.685-28.04-30.042-12.203-2.87-25.392 1.091-34.072 10.23-6.377 6.715-9.576 13.867-10.529 23.536-.626 6.348.77 13.757 3.727 19.786 5.138 10.478 14.777 17.98 25.924 20.176 2.857.563 3.213.586 7.79.504 3.518-.064 4.674-.178 6.726-.667zm-28.657-9.442c-.978-.792-2.48-2.208-3.34-3.148-1.483-1.624-3.644-4.45-3.644-4.768 0-.081 12.64-.148 28.088-.148s28.088.06 28.088.132c0 .072-.569.906-1.264 1.852-1.456 1.982-4.6 5.218-6.397 6.583l-1.233.937H29.64l-1.778-1.44zM16.068 61.421c-.666-2.832-.85-4.614-.85-8.257-.001-3.385.41-7.148.932-8.531l.233-.616H31.03V63.024H16.446l-.378-1.603zm24.638-7.903V44.01l9.264.062 9.264.062.064 4.693.064 4.693H82.791l-.157 2.397c-.142 2.183-.874 6.318-1.218 6.878-.088.144-7.672.228-20.425.228H40.706v-9.506zM59.59 39.143v-4.636l9.028.062 9.028.063.878 1.663c1.072 2.028 2.14 4.564 2.627 6.237l.364 1.247H59.589v-4.636zm-39.182-4.767c0-.418 3.02-4.265 4.636-5.906 1.811-1.84 5.433-4.887 5.807-4.887.103 0 .16 2.433.124 5.406l-.063 5.405-5.252.064c-2.888.035-5.252-.002-5.252-.082zm20.3-7.545v-7.688l2.3-.447c3.096-.602 8.72-.6 11.86.003 4.223.81 8.354 2.476 12.157 4.9l1.652 1.053-4.657.065-4.657.064-.064 4.807-.064 4.806-9.264.062-9.264.062v-7.687z"></path></g><!----></svg>